<svg height="920px" width="2680px" viewBox="0 0 2680 920" xmlns="http://www.w3.org/2000/svg" xmlns:xlink="http://www.w3.org/1999/xlink">
  <defs>
    <symbol id="B">
      <path fill-rule="evenodd" d="
        M   0, 110 L   0,   0 L 200,   0 L 280,  80 L 280, 180 L 240, 220 L 280, 260 L 280, 360 L 200, 440 L   0, 440 L   0, 330 L  20, 330 L  20, 110 L   0, 110 Z
        M  10, 120 L  10,  10 L 195,  10 L 270,  85 L 270, 175 L 225, 220 L 270, 265 L 270, 355 L 195, 430 L  10, 430 L  10, 340 L  30, 340 L  30, 100 L  10, 100 Z
        M  20, 130 L  20,  20 L 190,  20 L 260,  90 L 260, 170 L 210, 220 L 260, 270 L 260, 350 L 190, 420 L  20, 420 L  20, 350 L  40, 350 L  40,  90 L  20,  90 Z
        M 100,  90 L 165,  90 L 195, 120 L 195, 150 L 165, 180 L 100, 180 Z
        M 110, 100 L 160, 100 L 185, 125 L 185, 145 L 160, 170 L 110, 170 Z
        M 120, 110 L 155, 110 L 175, 130 L 175, 140 L 155, 160 L 120, 160 Z
        M 100, 260 L 165, 260 L 195, 290 L 195, 320 L 165, 350 L 100, 350 Z
        M 110, 270 L 160, 270 L 185, 295 L 185, 315 L 160, 340 L 110, 340 Z
        M 120, 280 L 155, 280 L 175, 300 L 175, 310 L 155, 330 L 120, 330 Z
      "></path>
    </symbol>
    <symbol id="E">
      <path fill-rule="evenodd" d="
        M   0, 110 L   0,   0 L 280,   0 L 280, 130 L 170, 130 L 170, 130 L 170, 110 L 120, 110 L 120, 180 L 170, 180 L 170, 160 L 250, 160 L 250, 280 L 170, 280 L 170, 260 L 120, 260 L 120, 330 L 170, 330 L 170, 310 L 280, 310 L 280, 440 L   0, 440 L   0, 330 L  20, 330 L  20, 110 Z
        M  10, 100 L  10,  10 L 270,  10 L 270, 120 L 160, 120 L 180, 120 L 180, 100 L 110, 100 L 110, 190 L 180, 190 L 180, 170 L 240, 170 L 240, 270 L 180, 270 L 180, 250 L 110, 250 L 110, 340 L 180, 340 L 180, 320 L 270, 320 L 270, 430 L  10, 430 L  10, 340 L  30, 340 L  30, 100 Z
        M  20,  90 L  20,  20 L 260,  20 L 260, 110 L 150, 110 L 190, 110 L 190,  90 L 100,  90 L 100, 200 L 190, 200 L 190, 180 L 230, 180 L 230, 260 L 190, 260 L 190, 240 L 100, 240 L 100, 350 L 190, 350 L 190, 330 L 260, 330 L 260, 420 L  20, 420 L  20, 350 L  40, 350 L  40,  90 Z          
      "></path>
    </symbol>
    <symbol id="L">
      <path fill-rule="evenodd" d="
        M   0, 110 L   0,   0 L 140,   0 L 140, 110 L 120, 110 L 120, 330 L 170, 330 L 170, 310 L 280, 310 L 280, 440 L   0, 440 L   0, 330 L  20, 330 L  20, 110 Z
        M  10, 100 L  10,  10 L 130,  10 L 130, 100 L 110, 100 L 110, 340 L 180, 340 L 180, 320 L 270, 320 L 270, 430 L  10, 430 L  10, 340 L  30, 340 L  30, 100 Z
        M  20,  90 L  20,  20 L 120,  20 L 120,  90 L 100,  90 L 100, 350 L 190, 350 L 190, 330 L 260, 330 L 260, 420 L  20, 420 L  20, 350 L  40, 350 L  40,  90 Z
      "></path>
    </symbol>
    <symbol id="I">
      <path fill-rule="evenodd" d="
        M   0,   0 L 280,   0 L 280, 160 L 240, 160 L 240, 760 L 280, 760 L 280, 920 L   0, 920 L   0, 760 L  40, 760 L  40, 160 L   0, 160 Z
        M  10,  10 L 270,  10 L 270, 150 L 230, 150 L 230, 770 L 270, 770 L 270, 910 L  10, 910 L  10, 770 L  50, 770 L  50, 150 L  10, 150 Z
        M  20,  20 L 260,  20 L 260, 140 L 220, 140 L 220, 780 L 260, 780 L 260, 900 L  20, 900 L  20, 780 L  60, 780 L  60, 140 L  20, 140 Z
      "></path>
    </symbol>
    <symbol id="V">
      <path fill-rule="evenodd" d="
        M   0, 110 L   0,   0 L 135,   0 L 135, 110 L 125, 110 L 140, 200 L 155, 110 L 145, 110 L 145,   0 L 280,   0 L 280, 110 L 260, 110 L 220, 330 L 240, 330 L 240, 440 L  40, 440 L40, 330 L  60, 330 L  20, 110 Z
        M  10, 100 L  10,  10 L 125,  10 L 125, 100 L 112, 100 L 140, 270 L 167, 100 L 155, 100 L 155,  10 L 270,  10 L 270, 100 L 251, 100 L 208, 340 L 230, 340 L 230, 430 L  50, 430 L50, 340 L  74, 340 L  29, 100 Z
        M  20,  90 L  20,  20 L 115,  20 L 115,  90 L  99,  90 L 140, 330 L 179,  90 L 165,  90 L 165,  20 L 260,  20 L 260,  90 L 242,  90 L 196, 350 L 220, 350 L 220, 420 L  60, 420 L60, 350 L  88, 350 L  38,  90 Z
      "></path>
    </symbol>
    <symbol id="S">
      <path fill-rule="evenodd" d="
        M   0,  80 L  80,   0 L 200,   0 L 280,  80 L 280, 160 L 180, 160 L 170, 150 L 170, 110 L 110, 110 L 110, 180 L 220, 180 L 280, 240 L 280, 360 L 200, 440 L  80, 440 L   0, 360 L   0, 280 L 100, 280 L 110, 290 L 110, 330 L 170, 330 L 170, 260 L  60, 260 L   0, 200 Z
        M  10,  85 L  85,  10 L 195,  10 L 270,  85 L 270, 150 L 185, 150 L 180, 145 L 180, 105 L 175, 100 L 105, 100 L 100, 105 L 100, 185 L 105, 190 L 215, 190 L 270, 245 L 270, 355 L 195, 430 L  85, 430 L  10, 355 L  10, 290 L  95, 290 L 100, 295 L 100, 335 L 105, 340 L 175, 340 L 180, 335 L 180, 255 L 175, 250 L  65, 250 L  10, 195 Z
        M  20,  90 L  90,  20 L 190,  20 L 260,  90 L 260, 140 L 190, 140 L 190, 100 L 180,  90 L 100,  90 L  90, 100 L  90, 190 L 100, 200 L 210, 200 L 260, 250 L 260, 350 L 190, 420 L  90, 420 L  20, 350 L  20, 300 L  90, 300 L  90, 340 L 100, 350 L 180, 350 L 190, 340 L 190, 250 L 180, 240 L  70, 240 L  20, 190 Z
      "></path>
    </symbol>
    <symbol id="U">
      <path fill-rule="evenodd" d="
        M   0, 110 L   0,   0 L 135,   0 L 135, 110 L 115, 110 L 115, 330 L 165, 330                       L 165, 110 L145, 110 L145,   0 L 280,   0 L 280, 110 L 260, 110 L 260, 360 L 180, 440 L 100, 440 L  20, 360 L  20, 110 Z
        M  10, 100 L  10,  10 L 125,  10 L 125, 100 L 105, 100 L 105, 335 L 110, 340 L 170, 340 L 175, 335 L 175, 100 L155, 100 L155,  10 L 270,  10 L 270, 100 L 250, 100 L 250, 355 L 175, 430 L 105, 430 L  30, 355 L  30, 100 Z
        M  20,  90 L  20,  20 L 115,  20 L 115,  90 L  95,  90 L  95, 340 L 105, 350 L 175, 350 L 185, 340 L 185,  90 L165,  90 L165,  20 L 260,  20 L 260,  90 L 240,  90 L 240, 350 L 170, 420 L 110, 420 L  40, 350 L  40,  90 Z
      "></path>
    </symbol>    
    <symbol id="R">
      <path fill-rule="evenodd" d="
        M   0, 110 L   0,   0 L 180,   0 L 260,  80 L 260, 180 L 220, 220 L 260, 260 L 260, 330 L 280, 330 L 280, 440 L 150, 440 L 150, 290  L 120, 260 L 120, 260 L 120, 330 L 140, 330 L 140, 440 L   0, 440 L   0, 330 L  20, 330 L  20, 110 L   0, 110 Z
        M  10, 100 L  10,  10 L 175,  10 L 250,  85 L 250, 175 L 205, 220 L 250, 265 L 250, 340 L 270, 340 L 270, 430 L 160, 430 L 160, 285  L 125, 250 L 110, 250 L 110, 340 L 130, 340 L 130, 430 L  10, 430 L  10, 340 L  30, 340 L  30, 100 L  10, 100 Z
        M  20,  90 L  20,  20 L 170,  20 L 240,  90 L 240, 170 L 190, 220 L 240, 270 L 240, 350 L 260, 350 L 260, 420 L 170, 420 L 170, 280  L 130, 240 L 100, 240 L 100, 350 L 120, 350 L 120, 420 L  20, 420 L  20, 350 L  40, 350 L  40,  90 L  20,  90 Z
        M 100,  90 L 145,  90 L 175, 120 L 175, 150 L 145, 180 L 100, 180 Z
        M 110, 100 L 140, 100 L 165, 125 L 165, 145 L 140, 170 L 110, 170 Z
        M 120, 110 L 135, 110 L 155, 130 L 155, 140 L 135, 160 L 120, 160 Z
      "></path>
    </symbol>        
    <symbol id="O">
      <path fill-rule="evenodd" d="
        M   0,  80 L  80,   0 L 200,   0 L 280,  80 L 280, 360 L 200, 440 L  80, 440 L   0, 360 Z
        M  10,  85 L  85,  10 L 195,  10 L 270,  85 L 270, 355 L 195, 430 L  85, 430 L  10, 355 Z
        M  20,  90 L  90,  20 L 190,  20 L 260,  90 L 260, 350 L 190, 420 L  90, 420 L  20, 350 Z
        M  90, 100 L 100,  90 L 180,  90 L 190, 100 L 190, 340 L 180, 350 L 100, 350 L  90, 340 Z
        M 100, 105 L 105, 100 L 175, 100 L 180, 105 L 180, 335 L 175, 340 L 105, 340 L 100, 335 Z
        M 110, 110 L 170, 110 L 170, 330 L 110, 330 Z
      "></path>
    </symbol>
  </defs>
  <g fill="black">
    <use xlink:href="#B" x="300" y="0" />
    <use xlink:href="#E" x="600" y="0" />
    <use xlink:href="#L" x="900" y="0" />
    <use xlink:href="#I" x="1200" y="0" fill="blue" />
    <use xlink:href="#E" x="1500" y="0" />
    <use xlink:href="#V" x="1800" y="0" />
    <use xlink:href="#E" x="2100" y="0" />
    <use xlink:href="#S" x="0" y="480" />
    <use xlink:href="#U" x="300" y="480" />
    <use xlink:href="#R" x="600" y="480" />
    <use xlink:href="#V" x="900" y="480" />
    <use xlink:href="#V" x="1500" y="480" />
    <use xlink:href="#O" x="1800" y="480" />
    <use xlink:href="#R" x="2100" y="480" />
    <use xlink:href="#S" x="2400" y="480" />
  </g>
</svg>